<svg id="Layer_1" data-name="Layer 1" xmlns="http://www.w3.org/2000/svg" xmlns:xlink="http://www.w3.org/1999/xlink" viewBox="0 0 344.74 72.39"><defs><style>.cls-1{fill:none;}.cls-2{fill:#504d50;}.cls-3{fill:#fff;}.cls-4{clip-path:url(#clip-path);}.cls-5{fill:#db3328;}</style><clipPath id="clip-path"><polygon class="cls-1" points="1 28.8 39.7 54.6 78.4 28.8 39.7 3 1 28.8"/></clipPath></defs><polygon class="cls-2" points="1 42.57 39.7 68.37 78.4 42.57 39.7 16.77 1 42.57"/><polygon class="cls-3" points="1 28.8 39.7 54.6 78.4 28.8 39.7 3 1 28.8"/><g class="cls-4"><path class="cls-5" d="M65.39,78.67c-4,0-8.1.34-12.09-.08C47.19,78,42.83,71.62,43,65.46a81.47,81.47,0,0,0-.89-16.75c-1.11-6.22-4.87-7.27-10-3.39-4.52,3.44-5.37,8.45-5.56,13.68-.17,4.5-.31,9-.47,13.48a3,3,0,0,1-.07.51c-1.07,6.19-1.6,6.54-8.32,5.4.88-3.78,1.78-7.54,2.63-11.32,1.25-5.57,2.34-11.18,3.73-16.72a22.79,22.79,0,0,1,6.66-11.53c2.62-2.4,5.64-4,9.24-2.72s5.12,4.3,5.43,7.86.31,7.43.41,11.15a15.63,15.63,0,0,0,8,13.88c4.18,2.56,7.92,5.82,11.85,8.77Z"/><path class="cls-5" d="M47.72,36.61a13.27,13.27,0,0,0-10.21-4.86c-4.9-.19-8.74,1.69-11.29,6-7,11.87-11.24,24.51-10.54,38.5,0,.68,0,1.37,0,2.25H11.26c.68-3.31,1.32-6.57,2-9.82,1.35-6.43,2.55-12.9,4.15-19.26.72-2.9,2.22-5.61,3.4-8.39a23.22,23.22,0,0,0,1.34-2.81c1.65-6.3,6.26-9.5,12.09-10.86,7-1.63,11.16-5.61,13.77-12.27,1.64-4.17,4.69-7.82,7.39-11.51.71-1,2.37-1.49,3.68-1.74a23.48,23.48,0,0,1,4.67,0c2.78,0,3.46.68,2.93,3.42a20.33,20.33,0,0,1-6.25,11.42c-3.77,3.45-7.63,6.81-11.24,10.42S45.55,32,47.72,36.61Zm.35-14.68c1.62,1.51,3.37,1.07,5-1.46,1.7-2.69,3.58-5.26,5.35-7.9a24.65,24.65,0,0,0,2.42-4,2.41,2.41,0,0,0-.45-2.25,2.39,2.39,0,0,0-2.3-.15,11.78,11.78,0,0,0-3.19,3.3C52.51,13.54,50.37,17.7,48.07,21.93Z"/><path class="cls-5" d="M44.07,2.25C40,9.06,35.89,15.71,28.55,19.87c-10,5.7-17.27,13.83-20.66,25.27-2.22,7.5-2.13,15-2.09,22.64,0,3.54,0,7.07,0,11.32-.62-.86-1.3-1.38-1.39-2-.65-4.44-1.25-8.89-1.73-13.35C1.61,53.9,3,44.39,7.53,35.54a22.07,22.07,0,0,1,4.73-6C20.45,22.05,28.8,14.77,37,7.36c1.4-1.26,2.45-2.9,3.8-4.23a15.07,15.07,0,0,1,2.66-1.7Z"/><path class="cls-5" d="M10.42,78.54H8.07c.21-7.4.7-14.65.55-21.9-.16-7.42,2.79-13.79,5.66-20.28,2.14-4.86,6.31-7.71,10.33-10.72A36.05,36.05,0,0,1,28.47,23,29.63,29.63,0,0,0,41,10.27c1.49-3,4.14-5.53,6.59-7.95.76-.76,2.55-.48,4.7-.79C51,3,50.18,3.79,49.44,4.64A34.94,34.94,0,0,0,43,15.5a14.09,14.09,0,0,1-5.24,6.11A83.12,83.12,0,0,1,26,28.08c-5.38,2.51-8.63,6.37-9.59,12.31A46.48,46.48,0,0,1,14,48.28c-2.65,7.46-3.34,15.2-3.55,23C10.36,73.62,10.42,76,10.42,78.54Z"/><path class="cls-5" d="M77.58,73.89c-.3-.67-.56-1.37-.92-2-2.06-3.68-4-7.44-6.26-11A71.76,71.76,0,0,1,59.8,34.59c-.39-2.24.6-4.93,1.57-7.14a14.07,14.07,0,0,1,3.86-4.81c6-5.12,10.63-11.1,12.17-19.14.61,2.56,1.18,5.11-.22,7.5q-5.48,9.41-11.1,18.73c-2.61,4.32-1.83,8.67-.06,12.94.85,2.06,2.34,3.86,3.22,5.91,1.52,3.54,2.77,7.2,4.18,10.79,1,2.64,2.29,5.22,3.24,7.9.74,2.07,1.17,4.25,1.74,6.39Z"/><path class="cls-5" d="M75.26,78.45c-3.5-4.26-6.54-8-9.61-11.68a12.24,12.24,0,0,0-1.84-1.83c-4.66-3.68-6.46-8.09-4.67-14.11,1.13-3.81-.24-7.51-2.86-10.64-1.73-2-3.27-4.27-5.05-6.27-1.62-1.82-1.29-3.31.51-4.56,2.54-1.77,5.17-3.4,8.29-5.44-.93,1.81-1.64,3-2.22,4.32a11.7,11.7,0,0,0-.65,9.12c2.72,7.2,5.52,14.38,8.6,21.43,1,2.32,3,4.21,4.46,6.35,2.19,3.21,4.44,6.39,6.4,9.73C78.09,77.38,77.48,78.2,75.26,78.45Z"/><path class="cls-5" d="M45.05,78.63H30.92c.28-3.8.65-7.56.8-11.34.15-3.54,0-7.09.1-10.64a18.45,18.45,0,0,1,1-5.58c.41-1.11,1.67-1.91,2.54-2.86.76.95,1.87,1.78,2.21,2.85a27,27,0,0,1,.93,5.62c.19,1.8.23,3.63.27,5.45C38.91,68.13,39.81,73.86,45.05,78.63Z"/><path class="cls-5" d="M36.34,1.57a8.28,8.28,0,0,1-.8,1.54C31.15,7.74,27,12.47,21.92,16.53c-7.86,6.3-15.47,13.16-19.21,23-.58,1.51-.89,3.11-1.56,4.67,0-4.47-.32-9,.11-13.4a8.06,8.06,0,0,1,5.29-6.57c4.21-1.73,7.36-4.66,10.39-8,2.25-2.45,5.11-4.35,7.75-6.42,3.26-2.55,6.57-5,9.88-7.53A10.71,10.71,0,0,1,36.34,1.57Z"/><path class="cls-5" d="M72.5,78.41a4.41,4.41,0,0,1-5-1.34c-3-3-6.32-5.65-9.49-8.46-1.61-1.44-3.29-2.83-4.75-4.41a11.19,11.19,0,0,1-3.1-8.79,56.43,56.43,0,0,0,.2-8.81,67.78,67.78,0,0,0-1.59-8.14c4.49,3.64,7.13,10.38,6,16a8.55,8.55,0,0,0,3.58,9.1c4.49,3.41,8.9,6.9,12.06,11.69Z"/><path class="cls-5" d="M78,14c.23,6.2-1.65,11.87-4.66,17.19-1.68,3-2.34,6-.3,8.8,4.94,6.75,5.76,14.28,4.29,22.47-.76-2.33-1.93-4.61-2.2-7A25.07,25.07,0,0,0,70,42.93c-3.89-5.22-3.6-9.76.72-14.56a19.49,19.49,0,0,0,4.9-9.56,42.39,42.39,0,0,1,1.63-5Z"/><path class="cls-5" d="M16.45,2.64,2,15.16l-.81-.58a82.29,82.29,0,0,1,.14-9.94A4.32,4.32,0,0,1,4.39,1.9c3.83-.35,7.72-.14,11.58-.14Z"/><path class="cls-5" d="M27.46,2.7C24.69,4.37,21.86,6,19.17,7.76a9.52,9.52,0,0,0-3.25,3.18,17.52,17.52,0,0,1-7.87,7.57c-2.39,1.24-4.42,3.21-6.59,4.83-.82-4-.88-4.15,2.63-5.95A35.68,35.68,0,0,0,18.19,4.7c1.49-2.33,3.18-3.41,5.92-2.91a17,17,0,0,0,3,0Z"/><path class="cls-5" d="M64.56,19.59c3.33-5.43,6.06-11,6-17.67h4C74.09,9.58,70.36,15.17,64.56,19.59Z"/><path class="cls-5" d="M77.8,32V40.3C74.73,36.74,74.72,35.47,77.8,32Z"/></g><path class="cls-2" d="M15.85,7.79c.9,0,1.8,0,2.7,0A1.4,1.4,0,0,1,20,9.38a1.33,1.33,0,0,1-1.49,1.53c-1,0-2,.07-2.92,0s-1.29.36-1.23,1.4,0,2.15,0,3.22S14,17.07,13.07,17.1s-1.47-.62-1.49-1.59q-.09-3,0-6A1.53,1.53,0,0,1,13.16,7.8C14.06,7.78,15,7.79,15.85,7.79Z"/><path class="cls-2" d="M15.8,63.58H13.11c-1,0-1.51-.67-1.54-1.68-.06-2-.05-3.95,0-5.92,0-1,.54-1.73,1.53-1.69s1.3.77,1.29,1.76.08,2,0,3c-.11,1.23.35,1.58,1.4,1.48a26.62,26.62,0,0,1,2.68,0A1.4,1.4,0,0,1,20,62.09a1.34,1.34,0,0,1-1.52,1.5Z"/><path class="cls-2" d="M65.06,60.47c0-1.5,0-2.86,0-4.23s.56-2,1.43-2,1.37.61,1.38,1.94c0,1.89,0,3.78,0,5.67,0,1.18-.52,1.72-1.58,1.71-1.76,0-3.52,0-5.27,0a1.43,1.43,0,0,1-1.55-1.52A1.46,1.46,0,0,1,61,60.47Z"/><path class="cls-2" d="M65.06,10.91c-1.43,0-2.7,0-4,0-.92,0-1.75-.76-1.63-1.56A1.57,1.57,0,0,1,61,7.79h5.27c1.06,0,1.56.62,1.56,1.76v5.93c0,1-.37,1.59-1.3,1.62s-1.45-.63-1.49-1.59C65,14,65.06,12.53,65.06,10.91Z"/><path class="cls-2" d="M96.46,54.81C94.8,53.28,94,50.74,94,47.22V12.85h7.38V46q0,2.48,1.17,3.42a4.86,4.86,0,0,0,3.21,1h14.7v6.72H103.87C100.59,57.12,98.12,56.36,96.46,54.81Z"/><path class="cls-2" d="M129,55.56q-3-1.85-3-7.5V22.5q0-5.09,2.76-7.38a10.16,10.16,0,0,1,6.66-2.27c3.76,0,7,.05,9.72.17s5.84.29,9.36.48v6.18H137.77a4.66,4.66,0,0,0-3.24,1.05,4.11,4.11,0,0,0-1.14,3.15v7.86l18.42.42V38l-18.42.42V46c0,3,1.44,4.44,4.32,4.44h16.8v6.18q-7.56.68-18.24.78A13.46,13.46,0,0,1,129,55.56Z"/><path class="cls-2" d="M171.19,19.5H158.47V12.85h32.82V19.5H178.63V57.12h-7.44Z"/><path class="cls-5" d="M202.27,57.12a47.83,47.83,0,0,1-6.54-1V50.35q5.4.48,13.38.48a12.78,12.78,0,0,0,6.09-1.15q2.07-1.12,2.07-4.14v-2.1A4.7,4.7,0,0,0,216,39.85a5.4,5.4,0,0,0-3.9-1.27h-4.14q-6.3,0-9.45-2.75t-3.15-8.95V24.6q0-6.23,3.48-9.18c2.32-1.95,5.76-2.94,10.32-2.94a63,63,0,0,1,6.81.42c2.46.29,4.57.6,6.33,1v5.81c-5.4-.35-9.5-.54-12.3-.54a10.61,10.61,0,0,0-5.67,1.23q-1.89,1.24-1.89,4.53v1.5a4.77,4.77,0,0,0,1.47,3.91,7,7,0,0,0,4.47,1.19H213c3.72,0,6.55,1,8.49,3a11.05,11.05,0,0,1,2.91,8v2.83q0,6.9-3.84,9.5c-2.56,1.75-6.24,2.61-11,2.61C207.31,57.48,204.91,57.37,202.27,57.12Z"/><path class="cls-5" d="M237.25,55.71Q233.89,54,232.12,49t-1.77-14.21c0-5.89.6-10.45,1.8-13.71s3-5.52,5.28-6.79a18.9,18.9,0,0,1,9-1.89,47.8,47.8,0,0,1,7.23.57,48.44,48.44,0,0,1,6.21,1.36V20q-1.8-.34-5.13-.66c-2.22-.19-4.49-.3-6.81-.3a12.43,12.43,0,0,0-6.09,1.23,7.35,7.35,0,0,0-3.09,4.59,39.1,39.1,0,0,0-1,10,41.49,41.49,0,0,0,.9,10,7.23,7.23,0,0,0,3,4.62,12.18,12.18,0,0,0,6.18,1.27,93.75,93.75,0,0,0,12-.67v5.71a49.05,49.05,0,0,1-13.62,1.61A19.27,19.27,0,0,1,237.25,55.71Z"/><path class="cls-5" d="M278.17,12.85h9.36l14.4,44.27h-7.74l-3.42-10.5h-16l-3.36,10.5h-7.62ZM289,40,282.73,19.2,276.49,40Z"/><path class="cls-5" d="M307.87,12.85h5.94L334,44.46V12.85h7.44V57.12h-5.94L315.31,25.5V57.12h-7.44Z"/></svg>